PathFileType	4	(X/Y/Z)	Patient4_TMGait_0pt4_03_left_12.trc.trc
DataRate	CameraRate	NumFrames	NumMarkers	Units	OrigDataRate	OrigDataStartFrame	OrigNumFrames
74.866310160428	74.866310160428	5	33	mm	74.866310160428	1	       141
Frame#	Time	Sacral			L.Shoulder			Chest			R.Shoulder			Neck			R.ASIS			L.ASIS			R.Thigh.Superior			R.Thigh.Lateral			R.Thigh.Inferior			R.Patella			L.Thigh.Superior			L.Thigh.Lateral			L.Thigh.Inferior			L.Patella			L.Shank.Superior			L.Shank.Lateral			L.Shank.Inferior			R.Shank.Superior			R.Shank.Lateral			R.Shank.Inferior			R.Heel			R.Midfoot.Superior			R.Midfoot.Lateral			R.Toe			L.Heel			L.Midfoot.Lateral			L.Midfoot.Superior			L.Toe			L.Elbow			L.Wrist			R.Elbow			R.Wrist			
		X1	Y1	Z1	X2	Y2	Z2	X3	Y3	Z3	X4	Y4	Z4	X5	Y5	Z5	X6	Y6	Z6	X7	Y7	Z7	X8	Y8	Z8	X9	Y9	Z9	X10	Y10	Z10	X11	Y11	Z11	X12	Y12	Z12	X13	Y13	Z13	X14	Y14	Z14	X15	Y15	Z15	X16	Y16	Z16	X17	Y17	Z17	X18	Y18	Z18	X19	Y19	Z19	X20	Y20	Z20	X21	Y21	Z21	X22	Y22	Z22	X23	Y23	Z23	X24	Y24	Z24	X25	Y25	Z25	X26	Y26	Z26	X27	Y27	Z27	X28	Y28	Z28	X29	Y29	Z29	X30	Y30	Z30	X31	Y31	Z31	X32	Y32	Z32	X33	Y33	Z33	

1	15.420000000000	826.553040772265	1003.190930019342	517.411808196683	976.014996646289	1435.951013990060	323.310169849303	1096.076827897999	1370.772297196585	474.127232424945	1028.805552063640	1440.754364723900	656.290855209693	971.062884353257	1497.107852618512	483.061437854431	1064.469766980347	944.560363117084	615.855210156529	1027.682254563720	967.353289804723	343.917702089502	1100.725620694024	741.622196466102	585.727599818594	1020.361320945535	632.645291882166	649.030499529215	1094.397892612196	579.996120370177	566.517385597698	1093.016919416898	490.863155129520	572.950046079482	1111.269917083504	781.712954371088	355.668091952625	1055.891013422790	656.307327874955	277.683106427101	1166.779082960469	594.012373585657	320.687564149929	1179.084821350592	506.160554458431	310.547918419466	1115.580843406749	436.734261490744	308.517965406797	972.880659291974	387.203114322777	269.411888770798	971.950933647451	255.775761359683	322.545278996062	1061.301969166334	403.161424759882	580.704703269757	986.721170250010	301.669602082799	644.320038783949	1021.816625551231	205.839581137781	577.711595643175	881.121435836128	43.835892951410	549.697540556705	1053.478133155225	96.578718317472	582.089220984531	966.122940216999	37.147309751717	622.501180278541	1174.310080660660	42.951134478928	606.971792446367	788.085680861138	178.312542604023	371.945544381997	843.144536030903	136.392370523710	287.656251171062	949.511064591104	152.758726203543	302.818701968022	1033.376479343751	46.036143942571	268.158916312271	919.138717958785	1087.218329833682	208.042855889564	968.133569264413	830.890758646951	184.934926342831	1066.515811418266	1113.808088152106	814.535352261932	1290.564102261581	990.758280233042	784.864350407419	
2	15.433357142857	825.554918739417	1004.116549892821	518.712031318444	974.649968076376	1436.739604934870	324.607056704325	1095.929588104515	1371.027764098853	474.162947293828	1030.521113138087	1440.986193656368	657.017615919657	971.139746585645	1497.565967238596	484.300013680962	1063.755640623413	944.554086063814	615.716946481355	1025.711022313641	968.204532753029	343.990597575303	1097.987830785190	741.237102811566	585.354600638380	1016.998817303642	632.822761496129	649.183784204586	1090.224981064371	579.625940984606	566.499600751387	1088.160829014647	490.693347396103	572.993845367203	1110.325130851720	784.092331716875	355.570699334256	1056.221953553419	658.026513391433	277.613773251805	1167.480507529317	596.890406693886	320.791065335789	1181.348747967295	510.299598002174	310.650329776249	1121.285903390570	439.488745939011	308.096189818062	982.223419854858	382.548037748899	268.520048692084	989.047380665119	251.331626252427	320.431988848129	1056.156994292217	403.021378250937	580.703569670254	981.551995552080	301.810182985715	644.463965130867	1016.444502971960	205.865176491230	577.909506587813	875.575715244546	43.915355268168	549.816351691354	1047.814984215202	96.551222244715	582.204908295617	960.471709613876	37.187097821612	622.649624840346	1168.614194058201	42.868452444626	607.084647655690	811.275759978158	163.007174797423	369.350070320307	867.925570652194	125.652238003527	284.462244665682	972.628477856565	147.986426135750	299.680427467231	1062.036423722011	47.453605689524	263.559771282296	909.522943925094	1089.435515261080	211.071133941391	953.143299347222	831.985250340153	190.748399944115	1075.115042401768	1114.807041730969	814.109041910639	1302.611888796135	1000.612352335068	781.511910420195	
3	15.446714285714	824.541456269199	1005.021011567108	519.956923784650	973.308745908136	1437.492252758406	325.860704994985	1095.791026521653	1371.238538905164	474.158808767134	1032.241296509883	1441.169679414526	657.700040239808	971.233313181767	1497.983602614589	485.495979531217	1063.007839809793	944.512993872568	615.530624257270	1023.747466858904	969.004722832493	344.016498865783	1095.258484925225	740.839644442150	584.940934877061	1013.676637122754	632.981849817123	649.320802588115	1086.082808895485	579.250451172660	566.454368199294	1083.347309510360	490.516015357761	573.020128932329	1109.275063119695	786.304805940116	355.489875238638	1056.393602144223	659.620182744573	277.559298717717	1167.914856396544	599.541773274455	321.034343703408	1183.326707532846	514.277100635670	310.865237469795	1126.760995818059	442.171563337001	307.729838034642	991.568573100342	377.799809532585	267.560817599797	1006.213324651762	246.936555953682	318.276237618670	1051.070300340753	402.872689345147	580.695900005207	976.432079583592	301.932109454432	644.591275957160	1011.108118704774	205.873050120735	578.087359984355	870.049298173233	43.987430360555	549.930540025773	1042.183096994478	96.521379202452	582.314812333157	954.850021787524	37.221830643039	622.792667399140	1162.950231433306	42.786383509506	607.195165811215	834.787969739707	147.758087148571	366.578344509480	893.016279160084	115.040195841717	281.142351023665	995.926825323182	143.355579016876	296.501348173886	1090.828814456405	49.154199654768	258.999919577835	900.023933380591	1091.629149605746	214.117862561113	938.336662483091	833.096502566716	196.547598231660	1083.595599559120	1115.741658973077	813.594084536590	1314.434634430693	1010.357773263546	778.097799982398	
4	15.460071428571	823.502229256748	1005.880155397683	521.087717069768	972.022210362704	1438.172281631080	327.012261939767	1095.666762413695	1371.364581306739	474.071899599158	1033.952202459012	1441.265475773643	658.283980617364	971.354953267713	1498.326058336872	486.590762821807	1062.203542511895	944.409306938854	615.255836317888	1021.801118966933	969.706716130170	343.949316573276	1092.550471987557	740.417602190388	584.451799115672	1010.429421233428	633.105582078129	649.416846720644	1081.997984881594	578.863716294205	566.348887098515	1078.613190675805	490.324275882794	573.001790899348	1108.015850475364	788.190363323370	355.432049260477	1056.249255624520	660.974852010339	277.509333014996	1167.847695576761	601.764935536912	321.495390204933	1184.756660105104	517.941739612474	311.264636555486	1131.770359580632	444.722971357604	307.450913725091	1000.854979781472	372.949030392330	266.493863700292	1023.384958982659	242.720082164615	316.072103303625	1046.092855576307	402.707068314559	580.665078917350	971.407733580267	302.019262200653	644.682395845523	1005.842322401417	205.847787588646	578.222813028216	864.566322909002	44.045234258169	550.035287435511	1036.615039370525	96.487752480339	582.412021693366	949.290072159538	37.246861428917	622.924549602533	1157.352273834231	42.707214094235	607.300606028949	858.733802599627	132.812686008857	363.552375351795	918.512628790592	104.794184917428	277.671513575720	1019.404357634507	139.066337263103	293.300009316330	1119.665399472837	51.394095592497	254.604709603471	890.808794569234	1093.758344381706	217.172864472609	923.944889602943	834.225734241242	202.279730633628	1091.813518632795	1116.550914759825	812.887163145929	1325.777099818888	1019.836276209957	774.560772246683	
5	15.473428571429	822.426090715775	1006.674372478071	522.056227610693	970.817395932071	1438.749376151427	328.008344862358	1095.560713803529	1371.372209087328	473.863545388284	1035.639292168606	1441.241593903636	658.720631202774	971.513391726040	1498.566670055538	487.530464641477	1061.323526568330	944.221717553172	614.861019140552	1019.875243359296	970.271265363883	343.751799177173	1089.869281126215	739.958769667545	583.859858406539	1007.273964786805	633.179926410490	649.448556644202	1077.977926206405	578.458802496739	566.153296158298	1073.971175469211	490.111443775259	572.911384073974	1106.451196486160	789.616188611468	355.402072527828	1055.648930210197	662.002268386274	277.442775078935	1167.082430225473	603.401770973154	322.218657670113	1185.424183062114	521.180260781107	311.899051653013	1136.126377469229	447.107743678770	307.281944469257	1010.053216232319	368.010501409775	265.281211803729	1040.520705631303	238.827581487939	313.827886409446	1041.245410629274	402.514879837089	580.590360379889	966.500272679445	302.058557447232	644.719518224974	1000.658076545808	205.777252188899	578.296425234738	859.131049770640	44.082164805602	550.126503480095	1031.117452090756	96.447680424438	582.488347788188	943.800442184909	37.259130882530	623.041406427420	1151.830293594506	42.633334845275	607.399204274801	883.220188889961	118.432896009978	360.225520698185	944.518083562693	95.153761847313	274.056122559128	1043.081786930109	135.321855754830	290.114727409286	1148.492891781471	54.413305460197	250.523621112814	882.008477273541	1095.788094935223	220.229281931496	910.130724000254	835.370532282459	207.902944044237	1099.668006102916	1117.185540721927	811.892749957958	1336.451209647793	1028.924306734509	770.838001548662	
